<svg width="342" height="539" viewBox="0 0 342 539" fill="none" xmlns="http://www.w3.org/2000/svg">
<path opacity="0.3" fill-rule="evenodd" clip-rule="evenodd" d="M279 306.783V518.64C279 553.434 250.794 581.64 216 581.64H136.146C146.865 563.108 153 541.592 153 518.644V464.145C153 427.377 136.94 392.444 109.033 368.507C61.8361 328.024 -7.836 328.024 -55.0328 368.507C-82.9403 392.444 -99 427.377 -99 464.145V518.644C-99 541.592 -92.865 563.108 -82.1456 581.64H-162C-196.794 581.64 -225 553.434 -225 518.64V306.783C-225 289.588 -217.972 273.141 -205.547 261.256L-16.5471 80.4736C7.81006 57.1755 46.19 57.1755 70.547 80.4735L259.547 261.256C271.972 273.141 279 289.588 279 306.783ZM26.2912 581.64C-8.17618 581.26 -36 553.201 -36 518.644V464.145C-36 445.761 -27.9702 428.294 -14.0164 416.326C9.58203 396.084 44.4181 396.084 68.0165 416.326C81.9702 428.294 90.0001 445.761 90.0001 464.145V518.644C90.0001 553.201 62.1763 581.26 27.709 581.64H26.2912ZM25.9974 644.64H-162C-231.588 644.64 -288 588.228 -288 518.64V306.783C-288 272.394 -273.945 239.5 -249.094 215.73L-60.0941 34.9471C-11.3799 -11.649 65.3799 -11.6491 114.094 34.9471L303.094 215.73C327.945 239.5 342 272.394 342 306.783V518.64C342 588.228 285.588 644.64 216 644.64H28.0027C27.6688 644.642 27.3346 644.644 27.0001 644.644C26.6655 644.644 26.3313 644.642 25.9974 644.64Z" fill="white"/>
</svg>
